<?xml version="1.0" encoding="UTF-8" standalone="no"?>
<!-- Created with Inkscape (http://www.inkscape.org/) -->

<svg
   xmlns:dc="http://purl.org/dc/elements/1.1/"
   xmlns:cc="http://creativecommons.org/ns#"
   xmlns:rdf="http://www.w3.org/1999/02/22-rdf-syntax-ns#"
   xmlns:svg="http://www.w3.org/2000/svg"
   xmlns="http://www.w3.org/2000/svg"
   xmlns:sodipodi="http://sodipodi.sourceforge.net/DTD/sodipodi-0.dtd"
   xmlns:inkscape="http://www.inkscape.org/namespaces/inkscape"
   width="210"
   height="50"
   id="svg4021"
   version="1.1"
   inkscape:version="0.48.2 r9819"
   sodipodi:docname="associationchainexample.pdf">
  <defs
     id="defs4023" />
  <sodipodi:namedview
     id="base"
     pagecolor="#ffffff"
     bordercolor="#666666"
     borderopacity="1.0"
     inkscape:pageopacity="0.0"
     inkscape:pageshadow="2"
     inkscape:zoom="2.65"
     inkscape:cx="150"
     inkscape:cy="50"
     inkscape:document-units="px"
     inkscape:current-layer="layer1"
     showgrid="true"
     inkscape:window-width="1280"
     inkscape:window-height="686"
     inkscape:window-x="0"
     inkscape:window-y="0"
     inkscape:window-maximized="1">
    <inkscape:grid
       type="xygrid"
       id="grid4029"
       empspacing="1"
       visible="true"
       enabled="false"
       snapvisiblegridlinesonly="true"
       spacingx="1px"
       spacingy="1px" />
  </sodipodi:namedview>
  <metadata
     id="metadata4026">
    <rdf:RDF>
      <cc:Work
         rdf:about="">
        <dc:format>image/svg+xml</dc:format>
        <dc:type
           rdf:resource="http://purl.org/dc/dcmitype/StillImage" />
        <dc:title></dc:title>
      </cc:Work>
    </rdf:RDF>
  </metadata>
  <g
     inkscape:label="Layer 1"
     inkscape:groupmode="layer"
     id="layer1"
     transform="translate(0,-1002.3622)">
    <path
       sodipodi:type="arc"
       style="fill:#000000;fill-opacity:1;stroke:#000000;stroke-width:1;stroke-miterlimit:4;stroke-opacity:1;stroke-dasharray:none;stroke-dashoffset:0"
       id="path4545"
       sodipodi:cx="30"
       sodipodi:cy="35"
       sodipodi:rx="5"
       sodipodi:ry="5"
       d="m 35,35 a 5,5 0 1 1 -10,0 5,5 0 1 1 10,0 z"
       transform="translate(0,980.36218)" />
    <path
       sodipodi:type="arc"
       style="fill:#000000;fill-opacity:1;stroke:#000000;stroke-width:1;stroke-miterlimit:4;stroke-opacity:1;stroke-dasharray:none;stroke-dashoffset:0"
       id="path4547"
       sodipodi:cx="60"
       sodipodi:cy="35"
       sodipodi:rx="5"
       sodipodi:ry="5"
       d="m 65,35 a 5,5 0 1 1 -10,0 5,5 0 1 1 10,0 z"
       transform="translate(0,980.36218)" />
    <path
       sodipodi:type="arc"
       style="fill:#000000;fill-opacity:1;stroke:#000000;stroke-width:1;stroke-miterlimit:4;stroke-opacity:1;stroke-dasharray:none;stroke-dashoffset:0"
       id="path4549"
       sodipodi:cx="90"
       sodipodi:cy="35"
       sodipodi:rx="5"
       sodipodi:ry="5"
       d="m 95,35 a 5,5 0 1 1 -10,0 5,5 0 1 1 10,0 z"
       transform="translate(0,980.36218)" />
    <path
       sodipodi:type="arc"
       style="fill:#000000;fill-opacity:1;stroke:#000000;stroke-width:1;stroke-miterlimit:4;stroke-opacity:1;stroke-dasharray:none;stroke-dashoffset:0"
       id="path4551"
       sodipodi:cx="120"
       sodipodi:cy="35"
       sodipodi:rx="5"
       sodipodi:ry="5"
       d="m 125,35 a 5,5 0 1 1 -10,0 5,5 0 1 1 10,0 z"
       transform="translate(0,980.36218)" />
    <path
       sodipodi:type="arc"
       style="fill:#000000;fill-opacity:1;stroke:#000000;stroke-width:1;stroke-miterlimit:4;stroke-opacity:1;stroke-dasharray:none;stroke-dashoffset:0"
       id="path4553"
       sodipodi:cx="30"
       sodipodi:cy="65"
       sodipodi:rx="5"
       sodipodi:ry="5"
       d="m 35,65 a 5,5 0 1 1 -10,0 5,5 0 1 1 10,0 z"
       transform="translate(0,980.36218)" />
    <path
       sodipodi:type="arc"
       style="fill:#000000;fill-opacity:1;stroke:#000000;stroke-width:1;stroke-miterlimit:4;stroke-opacity:1;stroke-dasharray:none;stroke-dashoffset:0"
       id="path4555"
       sodipodi:cx="60"
       sodipodi:cy="65"
       sodipodi:rx="5"
       sodipodi:ry="5"
       d="m 65,65 a 5,5 0 1 1 -10,0 5,5 0 1 1 10,0 z"
       transform="translate(0,980.36218)" />
    <path
       sodipodi:type="arc"
       style="fill:#000000;fill-opacity:1;stroke:#000000;stroke-width:1;stroke-miterlimit:4;stroke-opacity:1;stroke-dasharray:none;stroke-dashoffset:0"
       id="path4557"
       sodipodi:cx="90"
       sodipodi:cy="65"
       sodipodi:rx="5"
       sodipodi:ry="5"
       d="m 95,65 a 5,5 0 1 1 -10,0 5,5 0 1 1 10,0 z"
       transform="translate(0,980.36218)" />
    <path
       sodipodi:type="arc"
       style="fill:#000000;fill-opacity:1;stroke:#000000;stroke-width:1;stroke-miterlimit:4;stroke-opacity:1;stroke-dasharray:none;stroke-dashoffset:0"
       id="path4559"
       sodipodi:cx="120"
       sodipodi:cy="65"
       sodipodi:rx="5"
       sodipodi:ry="5"
       d="m 125,65 a 5,5 0 1 1 -10,0 5,5 0 1 1 10,0 z"
       transform="translate(0,980.36218)" />
    <path
       sodipodi:type="arc"
       style="fill:#000000;fill-opacity:1;stroke:#000000;stroke-width:1;stroke-miterlimit:4;stroke-opacity:1;stroke-dasharray:none;stroke-dashoffset:0"
       id="path4561"
       sodipodi:cx="145"
       sodipodi:cy="50"
       sodipodi:rx="5"
       sodipodi:ry="5"
       d="m 150,50 a 5,5 0 1 1 -10,0 5,5 0 1 1 10,0 z"
       transform="translate(0,980.36218)" />
    <path
       sodipodi:type="arc"
       style="fill:#000000;fill-opacity:1;stroke:#000000;stroke-width:1;stroke-miterlimit:4;stroke-opacity:1;stroke-dasharray:none;stroke-dashoffset:0"
       id="path4563"
       sodipodi:cx="175"
       sodipodi:cy="50"
       sodipodi:rx="5"
       sodipodi:ry="5"
       d="m 180,50 a 5,5 0 1 1 -10,0 5,5 0 1 1 10,0 z"
       transform="translate(0,980.36218)" />
    <path
       sodipodi:type="arc"
       style="fill:#000000;fill-opacity:1;stroke:#000000;stroke-width:1;stroke-miterlimit:4;stroke-opacity:1;stroke-dasharray:none;stroke-dashoffset:0"
       id="path4565"
       sodipodi:cx="200"
       sodipodi:cy="35"
       sodipodi:rx="5"
       sodipodi:ry="5"
       d="m 205,35 a 5,5 0 1 1 -10,0 5,5 0 1 1 10,0 z"
       transform="translate(0,980.36218)" />
    <path
       sodipodi:type="arc"
       style="fill:#000000;fill-opacity:1;stroke:#000000;stroke-width:1;stroke-miterlimit:4;stroke-opacity:1;stroke-dasharray:none;stroke-dashoffset:0"
       id="path4567"
       sodipodi:cx="200"
       sodipodi:cy="65"
       sodipodi:rx="5"
       sodipodi:ry="5"
       d="m 205,65 a 5,5 0 1 1 -10,0 5,5 0 1 1 10,0 z"
       transform="translate(0,980.36218)" />
    <path
       style="fill:none;stroke:#000000;stroke-width:1px;stroke-linecap:butt;stroke-linejoin:miter;stroke-opacity:1"
       d="m 30,1015.3622 30,0 30,0 30,0 25,15 30,0 25,-15 -25,15 25,15 -25,-15 -30,0 -25,15 -30,0 -30,0 -30,0 90,0 25,-15 -25,-15 z"
       id="path4569"
       inkscape:connector-curvature="0" />
    <path
       style="fill:none;stroke:#000000;stroke-width:1px;stroke-linecap:butt;stroke-linejoin:miter;stroke-opacity:1"
       d="m 30,1015.3622 -15,0 15,0 z"
       id="path4571"
       inkscape:connector-curvature="0" />
    <path
       style="fill:none;stroke:#000000;stroke-width:1px;stroke-linecap:butt;stroke-linejoin:miter;stroke-opacity:1"
       d="m 30,1045.3622 -15,0 z"
       id="path4573"
       inkscape:connector-curvature="0" />
    <path
       sodipodi:type="arc"
       style="fill:#000000;fill-opacity:1;stroke:#000000;stroke-width:1;stroke-miterlimit:4;stroke-opacity:1;stroke-dasharray:none;stroke-dashoffset:0"
       id="path4577"
       sodipodi:cx="10.5"
       sodipodi:cy="34.5"
       sodipodi:rx="0.5"
       sodipodi:ry="0.5"
       d="m 11,34.5 a 0.5,0.5 0 1 1 -1,0 0.5,0.5 0 1 1 1,0 z"
       transform="translate(0,980.36218)" />
    <path
       sodipodi:type="arc"
       style="fill:#000000;fill-opacity:1;stroke:#000000;stroke-width:1;stroke-miterlimit:4;stroke-opacity:1;stroke-dasharray:none;stroke-dashoffset:0"
       id="path4579"
       sodipodi:cx="7.5"
       sodipodi:cy="34.5"
       sodipodi:rx="0.5"
       sodipodi:ry="0.5"
       d="m 8,34.5 a 0.5,0.5 0 1 1 -1,0 0.5,0.5 0 1 1 1,0 z"
       transform="translate(0,980.36218)" />
    <path
       sodipodi:type="arc"
       style="fill:#000000;fill-opacity:1;stroke:#000000;stroke-width:1;stroke-miterlimit:4;stroke-opacity:1;stroke-dasharray:none;stroke-dashoffset:0"
       id="path4581"
       sodipodi:cx="4.5"
       sodipodi:cy="34.5"
       sodipodi:rx="0.5"
       sodipodi:ry="0.5"
       d="m 5,34.5 a 0.5,0.5 0 1 1 -1,0 0.5,0.5 0 1 1 1,0 z"
       transform="translate(0,980.36218)" />
    <path
       sodipodi:type="arc"
       style="fill:#000000;fill-opacity:1;stroke:#000000;stroke-width:1;stroke-miterlimit:4;stroke-opacity:1;stroke-dasharray:none;stroke-dashoffset:0"
       id="path4585"
       sodipodi:cx="10.5"
       sodipodi:cy="37.5"
       sodipodi:rx="0.5"
       sodipodi:ry="0.5"
       d="m 11,37.5 a 0.5,0.5 0 1 1 -1,0 0.5,0.5 0 1 1 1,0 z"
       transform="translate(0,1008.3622)" />
    <path
       sodipodi:type="arc"
       style="fill:#000000;fill-opacity:1;stroke:#000000;stroke-width:1;stroke-miterlimit:4;stroke-opacity:1;stroke-dasharray:none;stroke-dashoffset:0"
       id="path4587"
       sodipodi:cx="7.5"
       sodipodi:cy="37.5"
       sodipodi:rx="0.5"
       sodipodi:ry="0.5"
       d="m 8,37.5 a 0.5,0.5 0 1 1 -1,0 0.5,0.5 0 1 1 1,0 z"
       transform="translate(0,1008.3622)" />
    <path
       sodipodi:type="arc"
       style="fill:#000000;fill-opacity:1;stroke:#000000;stroke-width:1;stroke-miterlimit:4;stroke-opacity:1;stroke-dasharray:none;stroke-dashoffset:0"
       id="path4589"
       sodipodi:cx="4.5"
       sodipodi:cy="37.5"
       sodipodi:rx="0.5"
       sodipodi:ry="0.5"
       d="m 5,37.5 a 0.5,0.5 0 1 1 -1,0 0.5,0.5 0 1 1 1,0 z"
       transform="translate(0,1008.3622)" />
  </g>
</svg>
